<svg data-v-fde0c5aa="" xmlns="http://www.w3.org/2000/svg" viewBox="0 0 300 300" class="font"><!----><defs data-v-fde0c5aa=""><!----></defs><rect data-v-fde0c5aa="" fill="#509FF9" x="0" y="0" width="300px" height="300px" class="logo-background-square"></rect><defs data-v-fde0c5aa=""><!----></defs><g data-v-fde0c5aa="" id="e8aef390-98fb-4450-900d-811498bab860" fill="#FFC096" transform="matrix(3.3861785701242653,0,0,3.3861785701242653,37.900569270376394,121.89471883676205)"><path d="M7.04 7.91C6.15 7.91 5.64 7.88 5.33 7.83L5.11 9.97L5.14 9.98C5.67 9.42 6.50 9.27 7.22 9.25L7.22 11.54C6.78 11.75 6.27 11.84 5.68 11.84C3.82 11.84 2.69 10.47 2.69 8.25C2.69 6.05 3.82 4.66 5.78 4.66C6.99 4.66 7.95 5.07 8.67 5.87L8.69 5.85L8.48 3.57C7.77 3.35 6.85 3.19 5.82 3.19C2.72 3.19 0.62 5.14 0.62 8.39C0.62 11.30 2.62 13.33 5.54 13.33C6.66 13.33 8.08 12.92 9.02 12.32L9.02 10.01C9.02 8.75 9.16 8.15 9.48 7.94L9.48 7.91ZM10.65 13.12L14.10 13.12L14.10 13.09C13.73 12.85 13.34 12.18 13.34 11.02L13.34 5.49C13.34 4.34 13.75 3.65 14.10 3.42L14.10 3.39L10.65 3.39L10.65 3.42C11.02 3.65 11.41 4.33 11.41 5.49L11.41 11.02C11.41 12.17 11.00 12.85 10.65 13.09ZM22.27 13.23L22.64 10.47L22.61 10.46C22.01 11.30 21.03 11.72 19.81 11.72L18.42 11.72L18.42 5.49C18.42 4.34 18.83 3.65 19.18 3.42L19.18 3.39L15.75 3.39L15.75 3.42C16.11 3.65 16.51 4.33 16.51 5.43L16.51 11.02C16.51 12.17 16.10 12.85 15.75 13.09L15.75 13.12L20.72 13.12C21.36 13.12 21.74 13.13 22.27 13.23ZM28.90 7.94L28.90 7.90C29.71 7.77 30.51 6.90 30.51 5.84C30.51 4.17 29.44 3.39 27.34 3.39L23.48 3.39L23.48 3.42C23.93 3.72 24.30 4.41 24.30 5.56L24.30 10.93C24.30 12.19 23.83 12.82 23.48 13.09L23.48 13.12L27.73 13.12C29.64 13.12 31.01 12.07 31.01 10.25C31.01 9.11 30.06 8.08 28.90 7.94ZM27.23 4.76C28.06 4.76 28.53 5.14 28.53 5.94C28.53 6.83 28.04 7.28 27.23 7.28L26.22 7.28L26.22 4.76ZM27.45 11.75L26.22 11.75L26.22 8.64L27.45 8.64C28.50 8.64 29.01 9.25 29.01 10.18C29.01 11.10 28.50 11.75 27.45 11.75ZM35.41 13.33C37.67 13.30 38.82 12.03 38.82 10.47C38.82 8.37 37.34 7.76 36.09 7.24C35.18 6.86 34.40 6.54 34.40 5.73C34.40 5.01 34.94 4.65 36.01 4.65C36.82 4.65 37.62 4.87 38.22 5.80L38.25 5.80L38.07 3.50C37.25 3.29 36.60 3.21 35.87 3.21C33.70 3.21 32.51 4.48 32.51 5.87C32.51 7.81 33.87 8.39 35.08 8.89C36.04 9.28 36.89 9.65 36.89 10.61C36.89 11.37 36.40 11.84 35.27 11.87C34.12 11.90 33.21 11.49 32.37 10.40L32.34 10.42L32.58 12.77C33.21 13.15 34.27 13.34 35.41 13.33ZM47.11 3.28C46.47 3.36 45.88 3.39 45.19 3.39L41.78 3.39C41.09 3.39 40.50 3.36 39.86 3.28L39.62 5.84L39.65 5.85C39.97 5.29 40.63 4.82 41.47 4.82L42.53 4.82L42.53 10.91C42.53 12.10 42.08 12.85 41.68 13.09L41.68 13.12L45.30 13.12L45.30 13.09C44.84 12.85 44.45 12.11 44.45 10.91L44.45 4.82L45.50 4.82C46.34 4.82 47.00 5.29 47.32 5.85L47.35 5.84ZM55.47 10.43C54.87 11.28 53.89 11.75 52.65 11.75L51.13 11.75L51.13 8.60L52.42 8.60C53.20 8.60 53.70 8.85 53.94 9.48L53.97 9.48L54.38 7.13C53.75 7.21 53.35 7.22 52.19 7.22L51.13 7.22L51.13 4.76L52.98 4.76C54.07 4.76 54.84 5.11 55.17 5.80L55.20 5.78L54.96 3.28C54.66 3.35 54.04 3.39 53.48 3.39L48.45 3.39L48.45 3.42C48.82 3.65 49.21 4.33 49.21 5.49L49.21 11.02C49.21 12.17 48.80 12.85 48.45 13.09L48.45 13.12L53.40 13.12C54.22 13.12 54.59 13.15 55.10 13.23L55.50 10.44ZM63.77 11.23L62.47 9.11C63.64 8.74 64.37 7.83 64.37 6.34C64.37 4.52 63.07 3.39 60.83 3.39L56.85 3.39L56.85 3.42C57.22 3.65 57.61 4.33 57.61 5.43L57.61 11.02C57.61 12.17 57.22 12.85 56.85 13.09L56.85 13.12L60.23 13.12L60.23 13.09C59.92 12.85 59.53 12.18 59.53 11.07L59.53 4.77L60.51 4.76C61.71 4.75 62.38 5.39 62.38 6.41C62.38 7.66 61.71 8.15 60.51 8.15L59.84 8.15L62.01 11.86C62.31 12.38 62.54 12.87 62.72 13.41L65.59 12.89L65.59 12.87C64.92 12.64 64.30 12.08 63.77 11.23Z"></path></g><!----><!----></svg>